<svg id="Layer_1" data-name="Layer 1" xmlns="http://www.w3.org/2000/svg" viewBox="0 0 383.85 383.85"><defs><style>.cls-1{fill:#4bad4f;}.cls-2{fill:#fefefe;}</style></defs><circle class="cls-1" cx="191.93" cy="191.93" r="191.93"/><g id="Layer_2" data-name="Layer 2"><path class="cls-2" d="M508.43,251.49c0,2.76-1.61,4.61-3.42,6.41l-88.58,88.48-45.35,45.3c-5.67,5.65-8.51,5.66-14.07.07L287.44,321.9c-5.3-5.33-5.31-8.3-.06-13.56q12.57-12.6,25.18-25.18c4.54-4.52,7.92-4.52,12.49,0,12.12,12.08,24.28,24.13,36.24,36.38,2.39,2.44,3.52,2.16,5.77-.1q49.31-49.58,98.79-99c5.7-5.7,8.72-5.7,14.4,0q12.45,12.45,24.92,24.91C506.89,247.1,508.35,248.92,508.43,251.49Z" transform="translate(-203.57 -113.57)"/></g></svg>