<svg id="Layer_1" data-name="Layer 1" xmlns="http://www.w3.org/2000/svg" viewBox="0 0 359.39 359.5"><defs><style>.cls-1{fill:#fff;}</style></defs><path d="M297.85,241.55c87.64.08,162.8,63.8,177.14,150.17A179.67,179.67,0,0,1,335.47,596.83c-48.66,10.46-94.12,1.3-135.93-25.66-2.63-1.69-4.72-2.18-7.82-1.12-21.22,7.24-42.53,14.2-63.79,21.32-2.86,1-5.56,1.62-8-.72s-2-5.32-1-8.3c7.56-22.55,15.05-45.13,22.66-67.67a7,7,0,0,0-.57-6.26A179.35,179.35,0,0,1,297.85,241.55ZM219.74,421a18,18,0,0,0,17.87,18.18,18,18,0,1,0,0-35.92A18,18,0,0,0,219.74,421Zm119.8.06a18,18,0,0,0,17.93,18.12,18,18,0,1,0-.06-35.92A18,18,0,0,0,339.54,421.07Zm-23.9.28a18,18,0,1,0-18.27,17.84A18.1,18.1,0,0,0,315.64,421.35Z" transform="translate(-118.05 -241.55)"/><path class="cls-1" d="M219.74,421a18,18,0,0,1,17.92-17.74,18,18,0,1,1,0,35.92A18,18,0,0,1,219.74,421Z" transform="translate(-118.05 -241.55)"/><path class="cls-1" d="M339.54,421.07a18,18,0,0,1,17.87-17.8,18,18,0,1,1,.06,35.92A18,18,0,0,1,339.54,421.07Z" transform="translate(-118.05 -241.55)"/><path class="cls-1" d="M315.64,421.35A18,18,0,1,1,298,403.27,18.12,18.12,0,0,1,315.64,421.35Z" transform="translate(-118.05 -241.55)"/></svg>