<svg id="Layer_1" data-name="Layer 1" xmlns="http://www.w3.org/2000/svg" viewBox="0 0 383.22 378.89"><path d="M106,571c2.23-11.62,9.73-19.72,17.79-27.73Q183.4,484,242.68,424.52a24.82,24.82,0,0,1,3.89-2.6c-1.82-1.9-2.73-2.89-3.68-3.84q-62.17-62.19-124.35-124.37A36.21,36.21,0,0,1,165,238.48a43,43,0,0,1,5.34,4.66q61.59,61.19,123.13,122.41c1.24,1.23,2.36,2.57,3.83,4.17,1.33-1.26,2.4-2.23,3.42-3.25Q361.94,305.21,423.2,244c20.13-20.08,53.17-12.3,61,14.49,3.95,13.47,1.11,25.71-9,35.81Q413.87,355.7,352.45,417.05c-1.05,1.05-2.22,2-3.73,3.34,1.56,1.58,2.82,2.87,4.1,4.15Q415,486.4,477.3,548.25c7.84,7.78,12.11,16.93,11.91,28a35.05,35.05,0,0,1-34.48,34.38c-12.79.3-23.38-3.92-32.52-13.14q-60.61-61.1-121.62-121.8c-1.06-1.05-1.87-2.34-3.77-4.76-1.34,2.12-1.95,3.6-3,4.65Q232,537.58,170,599.48c-12.66,12.66-34.27,15-49.31,5.32-7.72-4.95-11.72-12.33-13.91-20.94-.21-.82-.54-1.61-.81-2.41Z" transform="translate(-106 -231.86)"/></svg>