<svg id="Layer_1" data-name="Layer 1" xmlns="http://www.w3.org/2000/svg" viewBox="0 0 293.3 352.99"><defs><style>.cls-1{fill:#fff;}</style></defs><path d="M205.1,243.89H405.7l4.3,1c21,5,34.14,22.1,34.15,44.57q0,130.78,0,261.56a54.28,54.28,0,0,1-1,11,43,43,0,0,1-42.52,34.79c-23.43.15-46.86,0-70.3,0q-59.43,0-118.88,0c-20.36,0-37.54-12.81-42.64-31.68-2.95-10.93-1.1-22.08-1.68-33.49h4.53c7.47-.08,14.94.12,22.39-.32,12.16-.71,22-11.66,22-24.06s-9.94-23.49-22.3-24.15c-7.56-.4-15.16-.19-22.73-.26h-3.68v-38.1h3.84c7.46-.07,14.94.14,22.38-.27,12-.66,20.77-9.62,22.32-22.25,1.29-10.51-6-21.69-16.65-24.87A41,41,0,0,0,188.7,396c-7.08-.2-14.18-.06-21.29-.06v-38.1h4c7.35-.06,14.71.15,22-.24A24.2,24.2,0,0,0,216,333.43c-.06-12.57-9.84-23.32-22.38-24.06-7.56-.44-15.15-.21-22.73-.3-1.2,0-2.4-.13-3.72-.2,0-7.75-.11-15.1,0-22.44a43.23,43.23,0,0,1,33-41.22C201.85,244.8,203.47,244.33,205.1,243.89ZM378.84,493.41c0-6.69.13-13.2,0-19.71-.56-24.47-20.49-44.56-44.9-45-13.42-.27-26.87-.36-40.29,0-16.29.47-28.84,8-37.84,21.59-8.82,13.27-7.24,28.19-7.11,43.13Zm-65-78.87a41.89,41.89,0,1,0-41.86-41.85A41.85,41.85,0,0,0,313.8,414.54Z" transform="translate(-150.86 -243.89)"/><path class="cls-1" d="M378.84,493.41H248.68c-.13-14.94-1.71-29.86,7.11-43.13,9-13.56,21.55-21.12,37.84-21.59,13.42-.39,26.87-.3,40.29,0,24.41.48,44.34,20.57,44.9,45C379,480.21,378.84,486.72,378.84,493.41Z" transform="translate(-150.86 -243.89)"/><path class="cls-1" d="M313.8,414.54a41.89,41.89,0,1,1,41.78-41.93A41.88,41.88,0,0,1,313.8,414.54Z" transform="translate(-150.86 -243.89)"/><path d="M178,319.86c4.24,0,8.49-.09,12.73,0,8.45.21,14.31,5.8,14.34,13.54s-5.76,13.46-14.21,13.65q-12.9.27-25.81,0c-8.36-.18-14.32-6.09-14.23-13.68s6.06-13.3,14.45-13.51C169.55,319.77,173.8,319.86,178,319.86Z" transform="translate(-150.86 -243.89)"/><path d="M178.22,520.85c-4.59,0-9.18.18-13.76,0-7-.34-12-4.64-13.24-10.89a13.25,13.25,0,0,1,7.38-14.81,16.77,16.77,0,0,1,6.31-1.42q13.08-.22,26.15,0c5.87.08,10.42,2.63,12.87,8.15,2.19,4.94,1.46,9.64-1.83,13.9-2.89,3.74-6.93,5.1-11.49,5.15-4.13,0-8.26,0-12.39,0Z" transform="translate(-150.86 -243.89)"/><path d="M178,433.91c-4.7,0-9.42.26-14.1-.06-6.81-.47-11.57-4.82-12.71-11a13.2,13.2,0,0,1,7.33-14.53,17.4,17.4,0,0,1,6.64-1.47c8.59-.17,17.2-.15,25.8,0,6,.08,10.66,2.69,13.07,8.37,2.17,5.1,1.26,9.89-2.28,14.13-2.86,3.42-6.73,4.64-11,4.71s-8.49,0-12.73,0Z" transform="translate(-150.86 -243.89)"/></svg>