<svg id="Layer_1" data-name="Layer 1" xmlns="http://www.w3.org/2000/svg" viewBox="0 0 277.24 300.08"><path d="M386.88,271.22c18.34.71,33.39,9.28,41.29,27.82s5.22,36.09-8.48,50.75c-18.05,19.31-37,37.76-55.62,56.57q-57.74,58.42-115.56,116.77a25.45,25.45,0,0,1-9.32,5.8c-15.84,5.62-31.82,10.83-47.74,16.25-9.51,3.23-18.11,1.63-25.22-5.4s-8.87-15.61-5.74-25.14c5.41-16.44,10.73-32.92,16.35-49.28a22.18,22.18,0,0,1,5-8.13q84.86-86.1,169.87-172C361,275.83,372.32,271.47,386.88,271.22Zm-18.19,96.39-33-32.05-130,131.54,33,32.06ZM385,348.83c6.08-5.53,13.15-10.85,18.8-17.39,7.19-8.34,6.14-21-1.17-29.19-7.1-8-19.83-10.52-28.54-4.17-7.63,5.55-14,12.85-21.14,19.6Zm-202,174,32.3-11L193.7,490.55C190.3,500.82,186.81,511.38,183,522.83Z" transform="translate(-159.01 -271.22)"/><path d="M337.32,571.29q-42.68,0-85.35,0c-8.44,0-13.79-5-13.52-12.51a11.77,11.77,0,0,1,9.46-11.06,32.55,32.55,0,0,1,5.59-.36q83.83,0,167.69,0a24.92,24.92,0,0,1,7,.76,11.86,11.86,0,0,1-2.56,23,44.6,44.6,0,0,1-4.48.15Z" transform="translate(-159.01 -271.22)"/><path d="M354.73,500.36c14.7,0,29.41-.07,44.11,0a11.8,11.8,0,0,1,11.64,9.26,11.67,11.67,0,0,1-5.92,13,17,17,0,0,1-7.17,1.61q-43,.15-86,0c-7.93,0-13.23-5-13.16-12.17s5.28-11.73,13.11-11.75c14.46-.05,28.92,0,43.38,0Z" transform="translate(-159.01 -271.22)"/></svg>