<svg id="Layer_1" data-name="Layer 1" xmlns="http://www.w3.org/2000/svg" viewBox="0 0 287.61 203.64"><path d="M297.56,355.34q-62.51,0-125,0c-13,0-21.41-11.14-17.86-23.31a17.63,17.63,0,0,1,15.64-12.55c.62,0,1.25,0,1.87,0q125.41,0,250.82,0c10.31,0,17.9,7.06,18.41,16.84.56,10.72-7.16,19-18.06,19.05-14,.11-28,0-41.93,0Z" transform="translate(-153.86 -319.41)"/><path d="M297.87,403.26q62.52,0,125,0c12.8,0,21.15,10.92,17.81,23a17.52,17.52,0,0,1-15.78,12.84c-1,.07-2,.05-3,.05H173.37c-11.22,0-19-6.79-19.45-16.95-.49-10.72,7.25-18.91,18.16-19,20.72-.08,41.43,0,62.15,0Z" transform="translate(-153.86 -319.41)"/><path d="M297.67,487.11q62.52,0,125,0c13,0,21.45,11,18,23.2A17.58,17.58,0,0,1,424.77,523c-.87.06-1.75,0-2.62,0H173.2c-9.77,0-16.55-4.91-18.7-13.44-2.91-11.54,5.1-22.26,17-22.44,11.48-.18,23-.05,34.44-.05Z" transform="translate(-153.86 -319.41)"/></svg>