<svg id="Layer_1" data-name="Layer 1" xmlns="http://www.w3.org/2000/svg" viewBox="0 0 357.56 331.78"><defs><style>.cls-1{fill:#f34336;}</style></defs><path class="cls-1" d="M476.38,423.56c-1.5,5.68-5.57,8.7-10.67,11.05q-163.33,75.27-326.6,150.7c-5.49,2.54-10.71,3.21-15.67-.85-5.64-4.62-6.16-12-1.36-18.41q13.76-18.46,27.63-36.86,39.27-52.35,78.6-104.66c1.76-2.33,1.83-3.76,0-6.15q-52.9-70.26-105.64-140.64c-2.46-3.28-4.34-6.7-3.73-10.89,1.35-9.32,10-13.83,18.87-9.78,15.33,7,30.6,14.1,45.9,21.16q141.14,65.11,282.31,130.2c5,2.32,8.88,5.4,10.33,10.94Z" transform="translate(-118.81 -255.58)"/></svg>