<svg id="Layer_1" data-name="Layer 1" xmlns="http://www.w3.org/2000/svg" viewBox="0 0 371.57 383.32"><defs><style>.cls-1{fill:#fff;}</style></defs><path d="M261.7,612.89c-2.36-.77-4.79-1.35-7-2.33-10.6-4.62-16.49-12.87-18.33-24.17-1-6.15-2-12.3-3.06-18.44-2.49-14.43-16.2-22.59-30-17.79-6.24,2.17-12.36,4.66-18.55,6.93-15.07,5.51-29.56.37-37.63-13.47q-15.43-26.49-30.66-53.1c-8-14-5.25-28.86,7.1-39.3,5-4.19,10.06-8.2,15-12.41,11.4-9.73,11.37-25.42-.06-35.14-5.13-4.37-10.44-8.52-15.55-12.9-11.58-9.93-14.34-24.92-6.81-38.18q15.42-27.15,31.21-54.08c7.86-13.41,22.47-18.52,37.12-13.19,6.09,2.21,12.11,4.62,18.2,6.8,14.46,5.19,28.12-2.84,30.74-18,1.19-6.88,2.22-13.79,3.61-20.62a29.34,29.34,0,0,1,28.7-23.82q32-.23,64,0c15,.11,26.74,10.83,29.29,26.37,1,6.15,2,12.3,3.07,18.44,2.5,14.48,16.09,22.63,30,17.88,6.24-2.14,12.36-4.64,18.56-6.92,15.07-5.54,29.56-.46,37.65,13.38q15.56,26.64,30.85,53.42c7.76,13.61,5,28.59-6.91,38.76-5,4.29-10.25,8.36-15.28,12.65-11.44,9.76-11.46,25.37-.05,35.14,5.12,4.37,10.44,8.52,15.55,12.9,11.61,9.92,14.42,24.91,6.91,38.16q-15.5,27.33-31.4,54.4c-7.67,13.05-22.25,18.17-36.56,13.09-6.22-2.2-12.34-4.69-18.55-6.93-14.47-5.22-28.21,2.78-30.79,17.89-1.09,6.39-2,12.81-3.25,19.17-2.64,13.28-10.45,21.72-23.8,24.8a6.56,6.56,0,0,0-1.33.6Zm191.68-138c-5-4.09-9.66-8-14.38-11.85-27.66-22.66-27.67-60.82,0-83.46,4.79-3.92,9.55-7.88,14.39-11.87-10.2-17.68-20.25-35-30.23-52.43-.92-1.62-1.78-1.94-3.57-1.24-6.49,2.53-13,5.09-19.62,7.22A52.19,52.19,0,0,1,332.76,281c-1.3-7.08-2.46-14.18-3.69-21.3H266.15c-1,6-2.08,11.88-3,17.78-4.75,31.61-33.2,51.85-63.71,44.79-7.95-1.84-15.55-5.25-23.24-8.13-2.16-.81-3.32-.67-4.42,1.52-1.66,3.34-3.68,6.5-5.55,9.74l-24.38,42.24C147,371.89,152,376,157,380.12c26.63,21.92,26.63,60.34,0,82.29-5,4.11-10,8.23-15.1,12.46l31.47,54.48c6.85-2.55,13.25-5,19.67-7.31A50.18,50.18,0,0,1,221,519.76c22.87,4.73,38.67,21.72,42.22,45.25.91,6,2,11.91,3,17.94H329.1c1-6.34,2.09-12.23,3-18.14,4.81-31.54,33.46-51.76,63.87-44.56,8,1.89,15.53,5.31,23.25,8.13,1.71.63,2.82.91,3.94-1C433.1,509.91,443.15,492.56,453.38,474.85Z" transform="translate(-111.84 -229.57)"/><path class="cls-1" d="M453.38,474.85c-10.23,17.71-20.28,35.06-30.23,52.48-1.12,2-2.23,1.68-3.94,1-7.72-2.82-15.3-6.24-23.25-8.13-30.41-7.2-59.06,13-63.87,44.56-.9,5.91-1.94,11.8-3,18.14H266.19c-1-6-2.1-12-3-17.94-3.55-23.53-19.35-40.52-42.22-45.25A50.18,50.18,0,0,0,193,522c-6.42,2.36-12.82,4.76-19.67,7.31l-31.47-54.48c5.12-4.23,10.1-8.35,15.1-12.46,26.63-22,26.63-60.37,0-82.29-5-4.11-10-8.23-15.1-12.45l24.38-42.24c1.87-3.24,3.89-6.4,5.55-9.74,1.1-2.19,2.26-2.33,4.42-1.52,7.69,2.88,15.29,6.29,23.24,8.13,30.51,7.06,59-13.18,63.71-44.79.89-5.9,2-11.78,3-17.78h62.92c1.23,7.12,2.39,14.22,3.69,21.3A52.19,52.19,0,0,0,400,321.22c6.63-2.13,13.13-4.69,19.62-7.22,1.79-.7,2.65-.38,3.57,1.24,10,17.39,20,34.75,30.23,52.43-4.84,4-9.6,7.95-14.39,11.87-27.66,22.64-27.65,60.8,0,83.46C443.72,466.87,448.42,470.76,453.38,474.85ZM299.64,495.12c41.21-1.73,73.42-35.71,71.84-75.79-1.63-41.31-35.9-73.72-76.06-71.92-41.22,1.85-73.3,35.86-71.65,76C225.47,464.49,259.63,496.8,299.64,495.12Z" transform="translate(-111.84 -229.57)"/><path d="M299.64,495.12c-40,1.68-74.17-30.63-75.87-71.75-1.65-40.1,30.43-74.11,71.65-76,40.16-1.8,74.43,30.61,76.06,71.92C373.06,459.41,340.85,493.39,299.64,495.12ZM298.09,377.3c-23.83-.39-43.91,19.19-44.42,43.31-.5,23.95,19.26,44.22,43.49,44.61,23.83.4,43.87-19.14,44.42-43.31C342.12,398,322.34,377.7,298.09,377.3Z" transform="translate(-111.84 -229.57)"/></svg>