<svg id="Layer_1" data-name="Layer 1" xmlns="http://www.w3.org/2000/svg" viewBox="0 0 351.56 408.84"><defs><style>.cls-1{fill:#fff;}</style></defs><path d="M442,625.49H152.89a10.29,10.29,0,0,0-1.81-.71c-21.53-4.33-34.41-25.15-27.5-45.8a278,278,0,0,1,15.08-36.81c8.59-17,21.93-29.15,40.88-34.35,10.16-2.79,20.48-3,30.87-2.92,6.32,0,12.65,0,20,0-2.13-1.85-3.6-2.94-4.83-4.24-5-5.3-10.25-10.45-14.84-16.11a8.62,8.62,0,0,0-7.59-3.68c-35.32,0-61.36-26.16-61.43-61.58,0-13.71.17-27.42,0-41.12-.39-26.54,4.91-51.8,16.94-75.49a155.14,155.14,0,0,1,53.11-60,153.65,153.65,0,0,1,148.38-12.65,154.69,154.69,0,0,1,64.69,53.48c15.85,22.57,25.6,47.64,27.43,75.1,1.41,21.07,1.1,42.28.85,63.42a58.83,58.83,0,0,1-54.56,58.34c-8.47.6-14.12,2.79-18.91,9.69-3.8,5.47-9,10-13.45,14.79h3.17c9.72.06,19.44-.19,29.14.25,24.42,1.09,43.12,12.11,55.72,33.15,7.83,13.09,13.11,27.28,17.52,41.8,4.28,14.09-.47,29.09-12.52,37.54C454.13,621.2,447.79,622.93,442,625.49ZM355.31,480.91h-33c-5.41,0-9.6-2.2-11.86-7.21-3.64-8,2.33-16.61,11.65-16.67q23.75-.15,47.49,0c2.54,0,3.9-.69,4.59-3.14,2-7,4.8-13.87,6-21,1.27-7.75,1-15.74,1.48-23.92-13.44,0-26,.36-38.43-.08-17.53-.63-32-8-43.41-21.32-.75-.86-1.56-1.66-2.45-2.6-.75.85-1.29,1.42-1.79,2q-18.13,21.6-46.33,22c-10.51.16-21,0-31.53,0-1.29,0-2.57.12-3.8.18-4.16,38.47,15.88,73.79,50.55,88.81C298.68,512.89,335.05,501.92,355.31,480.91ZM428.2,362.19c-2.65-57.2-52.72-120.61-129.46-121.45-74-.8-128.25,58.19-131.51,121.4l23.53-1.39c7.34-55.9,52.08-92.71,99-95.87,23-1.55,44.5,3.55,63.87,16,29.22,18.76,45.67,45.95,50.51,79.87Zm-83.05,167H249.76l47.71,64.36Z" transform="translate(-121.7 -216.65)"/><path class="cls-1" d="M355.31,480.91c-20.26,21-56.63,32-90.84,17.16-34.67-15-54.71-50.34-50.55-88.81,1.23-.06,2.51-.17,3.8-.18,10.51,0,21,.12,31.53,0q28.14-.42,46.33-22c.5-.6,1-1.17,1.79-2,.89.94,1.7,1.74,2.45,2.6,11.42,13.31,25.88,20.69,43.41,21.32,12.48.44,25,.08,38.43.08-.44,8.18-.21,16.17-1.48,23.92-1.16,7.13-4,14-6,21-.69,2.45-2.05,3.16-4.59,3.14q-23.75-.18-47.49,0c-9.32.06-15.29,8.65-11.65,16.67,2.26,5,6.45,7.21,11.86,7.21Z" transform="translate(-121.7 -216.65)"/><path class="cls-1" d="M428.2,362.19l-24.06-1.45c-4.84-33.92-21.29-61.11-50.51-79.87-19.37-12.44-40.85-17.54-63.87-16-46.92,3.16-91.66,40-99,95.87l-23.53,1.39c3.26-63.21,57.55-122.2,131.51-121.4C375.48,241.58,425.55,305,428.2,362.19Z" transform="translate(-121.7 -216.65)"/><path class="cls-1" d="M345.15,529.17l-47.68,64.36-47.71-64.36Z" transform="translate(-121.7 -216.65)"/></svg>