<svg id="Layer_1" data-name="Layer 1" xmlns="http://www.w3.org/2000/svg" viewBox="0 0 373.73 219.53"><path d="M110,346.29c1.86-6.91,4-13.68,8.6-19.39,7.84-9.69,17.84-15.3,30.37-15.74,8.63-.3,17.27-.15,25.9-.15q72.23,0,144.46,0c18,0,31.58,7.57,39.09,24a46.36,46.36,0,0,1,3.73,18.36c.3,44.87.21,89.75.14,134.63,0,21.5-13.45,38-33.88,41.81a52.15,52.15,0,0,1-9.44.64q-82.82,0-165.63,0c-22.69,0-37.94-12.33-42.77-34.41a2.9,2.9,0,0,0-.57-.87Z" transform="translate(-110 -310.97)"/><path d="M483.68,420.71c0,20.92.13,41.85-.05,62.77A24.33,24.33,0,0,1,452.26,507a35.51,35.51,0,0,1-7.27-3.31c-19.73-11.26-39.41-22.63-59.17-33.84a5.34,5.34,0,0,1-3.14-5.4q.15-44,0-87.95c0-2.25.42-3.71,2.61-5,20.38-11.62,40.62-23.46,61-35.08,12.5-7.14,27.13-3.43,34,9A30.06,30.06,0,0,1,483.53,359C483.87,379.59,483.68,400.15,483.68,420.71Z" transform="translate(-110 -310.97)"/></svg>